<svg width="133" height="19" viewBox="0 0 133 19" fill="none" xmlns="http://www.w3.org/2000/svg">
<path d="M29.821 0.238638H26.2159V17.6932H46.9602V0.238638H43.3722V14.7273H38.4205V0.238638H34.8324V14.7273H29.821V0.238638Z" fill="#2754A8"/>
<path d="M50.6889 0.238638V17.6932H62.4844V14.6506H54.3793V10.483H61.8452V7.44034H54.3793V3.28125H62.4503V0.238638H50.6889Z" fill="#2754A8"/>
<path fill-rule="evenodd" clip-rule="evenodd" d="M65.3842 0.238638V17.6932H69.0746V12.0341H72.1768C73.5178 12.0341 74.6598 11.7869 75.603 11.2926C76.5518 10.7983 77.2763 10.108 77.7763 9.22159C78.2763 8.33523 78.5263 7.3125 78.5263 6.15341C78.5263 4.99432 78.2791 3.97159 77.7848 3.08523C77.2962 2.19318 76.5859 1.49716 75.6541 0.997161C74.7223 0.491479 73.5945 0.238638 72.2706 0.238638H65.3842ZM69.0746 9.07671H71.5803C72.2905 9.07671 72.8757 8.95455 73.3359 8.71023C73.8018 8.46023 74.1484 8.11648 74.3757 7.67898C74.6087 7.2358 74.7251 6.72727 74.7251 6.15341C74.7251 5.57386 74.6087 5.06818 74.3757 4.63636C74.1484 4.19886 73.8018 3.8608 73.3359 3.62216C72.87 3.37784 72.2791 3.25568 71.5632 3.25568H69.0746V9.07671Z" fill="#2754A8"/>
<path fill-rule="evenodd" clip-rule="evenodd" d="M80.9233 17.6932H87.1108C88.8835 17.6932 90.4062 17.3438 91.679 16.6449C92.9574 15.946 93.9375 14.9432 94.6193 13.6364C95.3068 12.3295 95.6506 10.767 95.6506 8.94887C95.6506 7.13637 95.3068 5.57955 94.6193 4.27841C93.9375 2.97727 92.9631 1.98011 91.696 1.28693C90.429 0.58807 88.9176 0.238638 87.1619 0.238638H80.9233V17.6932ZM86.9574 14.5313H84.6136V3.40057H86.9659C88.0568 3.40057 88.9744 3.59375 89.7188 3.98011C90.4631 4.36648 91.0227 4.96875 91.3977 5.78693C91.7784 6.60512 91.9688 7.65909 91.9688 8.94887C91.9688 10.25 91.7784 11.3125 91.3977 12.1364C91.0227 12.9545 90.4602 13.5597 89.7102 13.9517C88.9659 14.3381 88.0483 14.5313 86.9574 14.5313Z" fill="#2754A8"/>
<path fill-rule="evenodd" clip-rule="evenodd" d="M113.342 13.8239C114.063 12.4886 114.424 10.8693 114.424 8.96591C114.424 7.0625 114.063 5.44318 113.342 4.10796C112.626 2.77273 111.648 1.75568 110.41 1.05682C109.177 0.352274 107.79 0 106.251 0C104.7 0 103.308 0.352274 102.075 1.05682C100.842 1.75568 99.8672 2.77273 99.1513 4.10796C98.4354 5.44318 98.0774 7.0625 98.0774 8.96591C98.0774 10.8636 98.4354 12.4801 99.1513 13.8153C99.8672 15.1506 100.842 16.1705 102.075 16.875C103.308 17.5795 104.7 17.9318 106.251 17.9318C107.79 17.9318 109.177 17.5824 110.41 16.8835C111.648 16.179 112.626 15.1591 113.342 13.8239ZM110.129 5.84659C110.498 6.69318 110.683 7.73296 110.683 8.96591C110.683 10.1989 110.498 11.2386 110.129 12.0852C109.765 12.9318 109.251 13.5739 108.586 14.0114C107.921 14.4489 107.143 14.6676 106.251 14.6676C105.359 14.6676 104.58 14.4489 103.915 14.0114C103.251 13.5739 102.734 12.9318 102.364 12.0852C102.001 11.2386 101.819 10.1989 101.819 8.96591C101.819 7.73296 102.001 6.69318 102.364 5.84659C102.734 5 103.251 4.35796 103.915 3.92046C104.58 3.48296 105.359 3.26421 106.251 3.26421C107.143 3.26421 107.921 3.48296 108.586 3.92046C109.251 4.35796 109.765 5 110.129 5.84659Z" fill="#2754A8"/>
<path d="M122.109 10.2528L127.717 17.6932H132.294L125.169 8.33523L131.979 0.238638H127.385L121.589 7.21023H120.848V0.238638H117.158V17.6932H120.848V10.2528H122.109Z" fill="#2754A8"/>
<path d="M8 0.193184C6.89543 0.193184 6 1.08861 6 2.19318V6.19318L2 6.19318C0.895431 6.19318 0 7.08861 0 8.19318V10.1932C0 11.2978 0.89543 12.1932 2 12.1932H6V16.1932C6 17.2978 6.89543 18.1932 8 18.1932H10C11.1046 18.1932 12 17.2978 12 16.1932V12.1932H16C17.1046 12.1932 18 11.2978 18 10.1932V8.19318C18 7.08861 17.1046 6.19318 16 6.19318L12 6.19318V2.19318C12 1.08861 11.1046 0.193184 10 0.193184H8Z" fill="#E03838"/>
</svg>
